<svg width="16" height="14" viewBox="0 0 16 14" fill="none" xmlns="http://www.w3.org/2000/svg">
<path d="M15.6257 9.0976C15.2769 8.4848 14.9009 7.88961 14.5361 7.28641C13.4417 5.47681 12.3505 3.66721 11.2513 1.86081C10.6849 0.932806 9.84173 0.470406 8.76173 0.433606C8.06733 0.412806 7.47693 0.686406 6.91533 1.05441C5.60653 1.91201 5.19213 3.59521 5.98253 4.94561C6.58413 5.97121 7.21133 6.98241 7.82733 8.00001C8.66733 9.38721 9.49613 10.784 10.3521 12.1616C10.9921 13.1872 11.9361 13.6448 13.1457 13.5472C13.7537 13.4992 14.2689 13.2224 14.7569 12.8848C15.9809 12.0384 16.3633 10.3904 15.6257 9.0976ZM12.9169 5.85121C11.5377 6.68641 10.1681 7.51521 8.78893 8.35201C8.69773 8.40641 8.57773 8.37761 8.52173 8.28641C8.22733 7.79841 7.93773 7.32321 7.64973 6.84641C7.23693 6.16641 6.82413 5.48801 6.41453 4.80641C5.67533 3.57921 6.03853 2.11681 7.25773 1.36321C7.72333 1.07681 8.20813 0.860806 8.76493 0.876806C9.60653 0.902406 10.3089 1.23201 10.7665 1.94881C11.4465 3.01761 12.0881 4.11041 12.7473 5.19361C12.8257 5.32161 12.9025 5.44961 12.9825 5.58241C13.0385 5.67521 13.0097 5.79521 12.9169 5.85121ZM6.08173 7.73921C5.08173 6.56321 3.09933 6.12641 1.54573 7.17441C-0.0478677 8.24801 -0.299068 10.2288 0.292932 11.4352C0.339332 11.5312 0.457732 11.56 0.548932 11.5024L6.03853 7.99681C6.12973 7.93761 6.15213 7.82081 6.08173 7.73921ZM6.44973 8.64001C4.61613 9.81121 2.78413 10.9808 0.948932 12.152C0.859332 12.2112 0.836932 12.328 0.907332 12.408C1.89453 13.5584 3.79533 14.0176 5.35853 13.0288C6.95373 12.0208 7.32653 10.0752 6.70093 8.70881C6.65613 8.61281 6.53933 8.58241 6.44973 8.64001Z" fill="#DBDDE0"/>
</svg>
