<svg width="14" height="16" viewBox="0 0 14 16" fill="none" xmlns="http://www.w3.org/2000/svg">
<path d="M4.21114 4.46222C4.31834 4.68142 4.43354 4.87342 4.47834 5.10222C4.60314 5.73742 4.88954 6.30862 5.31834 6.78062C5.59034 7.07982 5.57434 7.38702 5.48154 7.69582C5.40154 7.96302 5.42554 8.15822 5.60314 8.36302C5.83994 8.63822 6.07674 8.91182 6.40474 9.08622C6.78394 9.28942 7.31514 9.25422 7.74394 8.91982C8.09434 8.64622 8.35674 8.29582 8.59994 7.92782C8.64314 7.86382 8.62554 7.80782 8.61274 7.74702C8.59674 7.67182 8.58234 7.59662 8.56634 7.52302C8.50074 7.22062 8.59034 6.98062 8.79674 6.74382C9.20954 6.26862 9.48474 5.71502 9.61274 5.09582C9.65914 4.87182 9.77754 4.68622 9.90234 4.48782C9.89914 4.56462 9.90234 4.64302 9.89114 4.71982C9.77274 5.51022 9.86234 6.29102 10.0031 7.06542C10.0623 7.38382 10.1663 7.69742 10.2943 7.99982C10.3695 8.17582 10.5487 8.17262 10.6863 8.22862C11.1839 8.42702 11.6671 8.65102 12.1247 8.93262C12.5391 9.18702 12.7487 9.57422 12.8959 10.011C13.1263 10.6926 13.3279 11.3822 13.4655 12.091C13.6159 12.8686 13.6751 13.6494 13.6303 14.4398C13.6095 14.7854 13.3919 14.9918 13.1023 15.1006C12.4159 15.3582 11.7087 15.5582 10.9887 15.7054C10.5647 15.7918 10.1391 15.8574 9.71674 15.939C9.39674 16.0014 9.08314 15.9934 8.76474 15.995C7.92634 16.0014 7.08634 15.9838 6.24794 16.0014C5.44154 16.0174 4.64954 15.9326 3.85594 15.7838C3.03834 15.6318 2.23194 15.4494 1.44474 15.1886C1.22234 15.115 1.00314 15.0318 0.787139 14.9406C0.452739 14.7998 0.399939 14.499 0.375939 14.1982C0.339139 13.7294 0.423939 13.2654 0.473539 12.803C0.540739 12.1806 0.647939 11.563 0.801539 10.955C0.945539 10.3838 1.11994 9.82062 1.43354 9.31982C1.68474 8.91822 2.09114 8.69742 2.52794 8.53742C2.89114 8.40622 3.25594 8.27982 3.61914 8.14702C3.70234 8.11662 3.76154 8.06382 3.79994 7.96782C4.01754 7.40942 4.14234 6.83502 4.19674 6.23662C4.24474 5.71822 4.26714 5.20462 4.19034 4.68782C4.18234 4.62222 4.16794 4.55182 4.21114 4.46222ZM6.56154 13.7134C6.56154 13.8606 6.56794 13.9822 6.55994 14.1038C6.55194 14.2254 6.59034 14.2782 6.71994 14.2718C6.91194 14.2638 7.10394 14.2638 7.29594 14.2718C7.42714 14.2782 7.46074 14.2206 7.45754 14.1022C7.45114 13.8718 7.46234 13.6414 7.45274 13.411C7.44794 13.2734 7.48794 13.2142 7.63674 13.2206C7.86714 13.2302 8.09754 13.2174 8.32794 13.2254C8.45434 13.2302 8.50074 13.179 8.49914 13.0574C8.49594 12.8654 8.49114 12.6734 8.50074 12.483C8.50874 12.347 8.44314 12.3214 8.32794 12.323C8.11034 12.3278 7.89274 12.3246 7.67514 12.3278C7.51674 12.331 7.44154 12.2702 7.45114 12.099C7.46394 11.8766 7.45274 11.651 7.45754 11.427C7.45914 11.3214 7.42394 11.2782 7.31194 11.2814C7.11354 11.2878 6.91514 11.2862 6.71674 11.2814C6.60474 11.2798 6.55514 11.3166 6.55834 11.4366C6.56474 11.667 6.55194 11.8974 6.56314 12.1278C6.56954 12.275 6.50234 12.3214 6.37114 12.3214C6.20474 12.3214 6.03834 12.323 5.87194 12.3246C5.51514 12.3294 5.51514 12.331 5.51674 12.6942C5.51834 13.2238 5.51834 13.2206 6.04474 13.2254C6.20954 13.227 6.41914 13.1534 6.52474 13.2606C6.63354 13.3646 6.54394 13.5758 6.56154 13.7134ZM4.88474 3.73582C4.66714 3.73582 4.44954 3.73102 4.23194 3.73742C4.08634 3.74222 4.02714 3.68782 4.02234 3.53742C4.00954 3.16622 3.98394 2.79182 4.03514 2.42542C4.15834 1.55342 4.61914 0.577417 5.76794 0.227017C6.28474 0.0686172 6.80474 -0.0497828 7.33754 0.0190172C8.33914 0.147017 9.22074 0.519817 9.71034 1.47502C10.0255 2.08782 10.0239 2.76782 9.99674 3.44142C9.99514 3.50222 10.0047 3.56462 9.88954 3.54222C9.79994 3.52462 9.78554 3.64142 9.77114 3.70862C9.74874 3.81422 9.71834 3.83022 9.61754 3.77742C9.18074 3.54862 8.89434 3.19182 8.71834 2.74222C8.67034 2.61902 8.64954 2.59662 8.52634 2.68302C7.72794 3.23982 6.83994 3.55182 5.87514 3.67982C5.54554 3.72462 5.21594 3.73902 4.88474 3.73582Z" fill="#DBDDE0"/>
</svg>
