<svg width="14" height="10" viewBox="0 0 14 10" fill="none" xmlns="http://www.w3.org/2000/svg">
<path d="M14 1.43379C14 0.795391 13.48 0.275391 12.8416 0.275391H1.1584C0.52 0.275391 0 0.795391 0 1.43379V2.08339H14V1.43379ZM0.00159998 4.03059V8.57299C0.00159998 9.21299 0.52 9.73299 1.16 9.73299H12.84C13.48 9.73299 14 9.21299 14 8.57299V4.03059H0.00159998ZM4.2992 8.08019C4.2992 8.12819 4.2592 8.16659 4.2128 8.16659H1.72C1.6736 8.16659 1.6336 8.12819 1.6336 8.08019V7.26899C1.6336 7.22259 1.6736 7.18259 1.72 7.18259H4.2128C4.2592 7.18259 4.2992 7.22259 4.2992 7.26899V8.08019Z" fill="#DBDDE0"/>
</svg>
